<?xml version="1.0" encoding="UTF-8"?>
<!-- Generator: visioncortex VTracer 0.6.4 -->
<svg version="1.1" xmlns="http://www.w3.org/2000/svg" width="512" height="512">
<path d="M0 0 C0.69 -0.01 1.39 -0.02 2.11 -0.03 C4.39 -0.05 6.68 -0.03 8.96 -0.02 C10.56 -0.02 12.16 -0.03 13.75 -0.03 C17.09 -0.04 20.43 -0.03 23.77 -0 C28.04 0.02 32.31 0.01 36.59 -0.02 C39.88 -0.04 43.17 -0.04 46.47 -0.02 C48.04 -0.02 49.62 -0.02 51.19 -0.03 C53.4 -0.05 55.6 -0.03 57.8 0 C59.68 0.01 59.68 0.01 61.6 0.01 C65.78 0.82 67.25 2.41 69.9 5.65 C71.34 8.51 71.21 10.46 70.9 13.65 C67.74 19.23 67.74 19.23 64.9 20.65 C62.21 20.8 59.53 20.91 56.83 20.96 C56.04 20.98 55.24 21 54.42 21.03 C51.87 21.09 49.32 21.15 46.78 21.21 C45.05 21.25 43.33 21.3 41.6 21.34 C37.37 21.45 33.14 21.55 28.9 21.65 C36.58 27.92 44.26 34.18 52.09 40.27 C57.17 44.23 62.11 48.33 67 52.52 C71.51 56.36 76.15 60.03 80.82 63.67 C85.24 67.12 89.6 70.64 93.94 74.21 C102.5 81.25 111.09 88.26 119.84 95.08 C126.53 100.3 133.06 105.69 139.6 111.1 C148.6 118.53 157.64 125.91 166.84 133.08 C174.33 138.93 181.64 144.98 188.96 151.04 C190.73 152.5 192.5 153.95 194.29 155.4 C195.25 156.18 196.22 156.96 197.21 157.77 C198.04 158.43 198.86 159.1 199.7 159.78 C205.72 164.89 205.72 164.89 206.47 168.05 C206.46 172.62 206.43 174.93 203.65 178.71 C199.07 181.94 195.2 181.79 189.66 181.85 C188.93 181.86 188.21 181.87 187.47 181.88 C185.09 181.91 182.7 181.94 180.32 181.96 C178.67 181.98 177.02 182 175.36 182.03 C171.02 182.08 166.67 182.13 162.32 182.18 C157.89 182.23 153.45 182.29 149.01 182.34 C140.31 182.45 131.61 182.55 122.9 182.65 C123.79 183.59 124.68 184.52 125.6 185.49 C126.78 186.75 127.96 188 129.14 189.26 C129.73 189.88 130.31 190.49 130.91 191.13 C134.39 194.84 137.33 198.56 140.09 202.83 C145.05 209.05 150.62 209.16 158.07 210 C179.9 212.55 200.03 225.59 214 242.15 C229.35 262.3 235.65 283.47 235.53 308.6 C235.53 311.44 235.57 314.27 235.62 317.11 C235.63 318.93 235.63 320.75 235.63 322.57 C235.65 323.41 235.67 324.25 235.68 325.11 C235.62 329.38 235.25 331.19 232.6 334.68 C227.93 337.89 222.38 337.26 216.94 337.14 C215.8 337.13 214.65 337.12 213.47 337.11 C209.82 337.09 206.17 337.02 202.53 336.96 C200.05 336.93 197.57 336.91 195.09 336.89 C189.03 336.84 182.97 336.75 176.9 336.65 C176.76 337.75 176.61 338.86 176.46 340 C174.95 349.91 167.25 358.65 159.41 364.51 C151.07 369.75 143 372.22 133.15 372.15 C132.28 372.14 131.41 372.14 130.51 372.13 C116.69 371.75 106.52 365.73 97.15 355.9 C92.56 350.42 88.9 343.87 88.9 336.65 C43.03 336.98 -2.84 337.31 -50.1 337.65 C-51.75 341.61 -53.4 345.57 -55.1 349.65 C-62.25 360.69 -72.02 368.8 -85.1 371.65 C-99.35 372.97 -111.59 371.71 -123.41 363.02 C-130.74 356.69 -136.43 349 -139.1 339.65 C-139.1 338.66 -139.1 337.67 -139.1 336.65 C-140.19 336.67 -141.29 336.7 -142.41 336.73 C-146.49 336.82 -150.56 336.87 -154.63 336.92 C-156.39 336.95 -158.15 336.98 -159.91 337.02 C-162.45 337.09 -164.98 337.11 -167.52 337.14 C-168.69 337.17 -168.69 337.17 -169.89 337.21 C-170.63 337.21 -171.37 337.21 -172.13 337.21 C-172.78 337.23 -173.43 337.24 -174.09 337.25 C-177.52 336.22 -178.95 334.47 -181.1 331.65 C-181.81 328.66 -181.77 325.77 -181.73 322.72 C-181.74 321.83 -181.74 320.94 -181.75 320.02 C-181.77 317.08 -181.75 314.14 -181.73 311.2 C-181.73 309.15 -181.73 307.1 -181.73 305.05 C-181.74 300.74 -181.72 296.44 -181.69 292.14 C-181.66 286.65 -181.67 281.16 -181.69 275.67 C-181.7 271.43 -181.69 267.19 -181.67 262.95 C-181.67 260.93 -181.67 258.9 -181.67 256.88 C-181.7 242.12 -181.04 229.74 -170.1 218.65 C-161.91 211.71 -152.56 208.89 -142.1 207.65 C-141.93 207.06 -141.76 206.47 -141.58 205.86 C-139.78 199.62 -137.96 193.39 -136.13 187.16 C-135.45 184.85 -134.78 182.53 -134.11 180.22 C-126.86 155.06 -118.95 133.66 -95.12 119.93 C-80.29 112.09 -65.62 111.49 -49.23 111.48 C-47.58 111.48 -45.93 111.47 -44.28 111.47 C-40.83 111.46 -37.39 111.46 -33.94 111.46 C-29.57 111.46 -25.2 111.45 -20.84 111.43 C-17.43 111.42 -14.03 111.42 -10.62 111.42 C-9.01 111.42 -7.41 111.41 -5.8 111.4 C8.63 111.34 23.42 111.87 37.4 115.77 C38.18 115.98 38.95 116.2 39.75 116.42 C60.11 122.28 76.88 132.89 91.9 147.65 C92.63 148.35 92.63 148.35 93.37 149.07 C101.63 157.11 101.63 157.11 102.9 159.65 C123.36 159.65 143.82 159.65 164.9 159.65 C160.28 156.02 155.66 152.39 150.9 148.65 C144.4 143.15 144.4 143.15 141.19 140.4 C137.21 137.04 133.1 133.83 128.99 130.63 C124.56 127.17 120.2 123.65 115.87 120.08 C107.3 113.04 98.71 106.03 89.96 99.21 C83.28 93.99 76.74 88.6 70.2 83.2 C61.21 75.76 52.17 68.39 42.96 61.21 C36.28 55.99 29.74 50.6 23.21 45.2 C19.03 41.75 14.85 38.32 10.65 34.9 C10 34.36 9.35 33.83 8.67 33.28 C3.33 28.95 -2.11 24.78 -7.62 20.67 C-10.32 18.46 -11.9 16.85 -12.47 13.34 C-12.49 12.49 -12.51 11.65 -12.54 10.77 C-12.58 9.93 -12.62 9.09 -12.66 8.22 C-11.19 1.49 -6.2 0.02 0 0 Z " fill="#0E52FE" transform="translate(181.09765625,140.35302734375)"/>
<path d="M0 0 C21.83 18.25 36.93 41.59 40.06 70.38 C41.67 101.27 35.21 127.07 15.53 151.54 C12.75 155.01 10.04 158.54 7.31 162.06 C6.11 163.6 4.91 165.14 3.71 166.68 C1.29 169.8 -1.14 172.92 -3.56 176.04 C-9.27 183.39 -14.99 190.73 -20.75 198.05 C-25.1 203.58 -29.42 209.13 -33.73 214.68 C-37.88 220.02 -42.04 225.35 -46.23 230.65 C-48.19 233.13 -50.12 235.62 -52 238.17 C-52.6 238.98 -53.19 239.79 -53.81 240.62 C-54.3 241.31 -54.8 242 -55.3 242.7 C-57.35 244.8 -59.14 245.53 -61.94 246.38 C-66.06 246.3 -68.18 246.06 -71.28 243.27 C-74.31 239.96 -77.18 236.56 -80 233.06 C-80.85 232.01 -80.85 232.01 -81.72 230.94 C-86.08 225.52 -90.27 219.97 -94.42 214.38 C-97.97 209.6 -101.66 204.97 -105.44 200.38 C-110.29 194.47 -114.94 188.44 -119.49 182.3 C-122.86 177.77 -126.33 173.33 -129.88 168.94 C-154.78 137.99 -171.92 108.88 -167.65 67.63 C-164.27 44.22 -153.23 25.09 -136.94 8.38 C-136.37 7.73 -135.8 7.09 -135.21 6.43 C-101.62 -30.52 -37.59 -28.77 0 0 Z " fill="#0E52FF" transform="translate(471.9375,20.625)"/>
<path d="M0 0 C38.46 -0.04 38.46 -0.04 54.55 -0.05 C65.67 -0.05 76.78 -0.06 87.9 -0.08 C96 -0.09 104.1 -0.09 112.19 -0.09 C116.48 -0.1 120.77 -0.1 125.06 -0.11 C129.09 -0.11 133.13 -0.11 137.16 -0.11 C138.64 -0.11 140.13 -0.12 141.61 -0.12 C143.63 -0.12 145.65 -0.12 147.67 -0.12 C148.8 -0.12 149.94 -0.12 151.1 -0.12 C153.59 -0.02 155.64 0.27 158 1 C158.01 1.64 158.02 2.29 158.03 2.95 C158.08 5.93 158.17 8.9 158.25 11.88 C158.26 12.89 158.28 13.9 158.29 14.95 C158.56 23.33 159.86 30.94 166 37 C166 37.66 166 38.32 166 39 C166.52 39.25 167.03 39.5 167.56 39.75 C170.18 41.09 172.7 42.58 175.22 44.1 C179.55 46.29 184.06 46.21 188.83 46.32 C189.95 46.35 189.95 46.35 191.1 46.38 C193.48 46.44 195.87 46.5 198.25 46.56 C199.87 46.61 201.49 46.65 203.11 46.69 C207.07 46.8 211.04 46.9 215 47 C215.65 48.87 216.3 50.75 216.94 52.62 C217.3 53.67 217.66 54.71 218.03 55.79 C219.54 60.77 220.13 65.42 220.1 70.62 C220.1 71.54 220.09 72.46 220.09 73.4 C220.08 74.55 220.07 75.69 220.06 76.88 C220.04 80.55 220.02 84.22 220 88 C207.46 88 194.92 88 182 88 C180.35 84.04 178.7 80.08 177 76 C170.59 66.1 162.33 58.72 151 55 C137.5 52.59 125.61 53.3 113.66 60.39 C103.59 67.44 98.47 76.82 94 88 C62.98 88 31.96 88 0 88 C0 58.96 0 29.92 0 0 Z " fill="#4CB9F6" transform="translate(176,369)"/>
<path d="M0 0 C32.01 0 64.02 0 97 0 C97 29.04 97 58.08 97 88 C88.42 88 79.84 88 71 88 C69.35 84.04 67.7 80.08 66 76 C59.85 65.75 51.55 58.65 40 55 C26.43 52.64 14.27 53.13 2.4 60.64 C-7.05 67.63 -13.67 76.33 -16 88 C-23.59 88 -31.18 88 -39 88 C-39 72.16 -39 56.32 -39 40 C-34.05 39.34 -29.1 38.68 -24 38 C-15.4 35.43 -9.48 31.56 -4.65 23.84 C-0.51 15.89 -0.68 9.52 0 0 Z " fill="#4CB9F6" transform="translate(59,369)"/>
<path d="M0 0 C25.58 0 48.12 2.43 69 18 C69.82 18.6 70.64 19.21 71.49 19.83 C81.04 27.14 89.15 35.73 96.62 45.12 C99.3 48.36 102.12 51.43 105 54.5 C111.41 61.35 117.37 68.49 123 76 C82.41 76 41.82 76 0 76 C0 50.92 0 25.84 0 0 Z " fill="#C7F2FF" transform="translate(176,273)"/>
<path d="M0 0 C0.89 0 1.79 0.01 2.71 0.01 C6 0.02 9.29 0.07 12.59 0.11 C23.66 0.2 23.66 0.2 34.96 0.29 C34.96 25.37 34.96 50.45 34.96 76.29 C3.61 76.29 -27.74 76.29 -60.04 76.29 C-57.79 65.05 -57.79 65.05 -56.23 60.3 C-55.9 59.27 -55.57 58.24 -55.22 57.18 C-54.87 56.13 -54.52 55.07 -54.16 53.98 C-53.44 51.76 -52.72 49.55 -51.99 47.33 C-51.65 46.28 -51.31 45.24 -50.96 44.16 C-50.21 41.82 -49.5 39.49 -48.84 37.13 C-44.76 22.66 -36.8 12.37 -23.89 4.58 C-15.95 0.99 -8.66 -0.14 0 0 Z " fill="#C8F2FF" transform="translate(121.0390625,272.70703125)"/>
<path d="M0 0 C6.68 5.15 11 12.31 12.39 20.65 C12.72 29.23 10.53 37.46 5.38 44.41 C0.01 50.13 -8.6 54.02 -16.38 54.84 C-25.5 55.11 -32.23 51.9 -39.33 46.3 C-45.43 40.5 -48.37 32.81 -48.62 24.47 C-48.45 16.02 -45.52 9.55 -40.03 3.18 C-28.67 -7.75 -13.02 -8.62 0 0 Z " fill="#FCFDFF" transform="translate(426.1171875,79.40234375)"/>
<path d="M0 0 C6.03 4.81 10.51 10.02 11.41 17.86 C11.58 26.85 10.58 32.73 4.39 39.4 C-2.01 45.33 -8.38 47.21 -17.02 46.98 C-23.46 46.2 -28.19 42.86 -32.96 38.62 C-37.26 32.35 -39.96 25.96 -39.48 18.29 C-38.09 11.13 -34.65 5.22 -28.83 0.81 C-19.97 -4.8 -9.03 -5.78 0 0 Z " fill="#878899" transform="translate(99.9609375,445.375)"/>
<path d="M0 0 C6.82 3.93 11.29 9.35 13.56 16.94 C14.67 25.95 12.67 32.98 7.31 40.25 C1.91 45.53 -4.56 47.99 -12.06 48.31 C-18.8 48.22 -24.22 45.72 -29.29 41.33 C-35.11 35.07 -37.12 28.21 -36.85 19.75 C-35.78 12.4 -32.06 6.55 -26.17 2.12 C-25.6 1.73 -25.03 1.34 -24.44 0.94 C-23.14 0.01 -23.14 0.01 -21.81 -0.94 C-14.57 -3.35 -6.97 -3.19 0 0 Z " fill="#878899" transform="translate(325.4375,444.0625)"/>
<path d="M0 0 C0.86 11.82 0.86 11.82 -2.25 15.62 C-6.32 19.14 -8.85 20.27 -14.25 20.12 C-15.14 20.11 -16.03 20.09 -16.95 20.07 C-17.63 20.05 -18.3 20.02 -19 20 C-19.09 14.56 -18.38 10.85 -14.81 6.62 C-10.3 1.99 -6.52 -0.18 0 0 Z " fill="#F4F7FF" transform="translate(39,369)"/>
</svg>
